# xmcd
#
# Track frame offsets: 
#        150
#        33671
#        60931
#        87145
#        118684
#        149564
#        177587
#        225383
#        272788
#
# Disc length: 4043 seconds
#
# Revision: 4
# Processed by: cddbd v1.5.2PL0 Copyright (c) Steve Scherf et al.
# Submitted via: ExactAudioCopy v1.3
#
DISCID=7a0fc909
DTITLE=Robert Harris - Imperium CD5
DYEAR=2008
DGENRE=Lesung
TTITLE0=38
TTITLE1=39
TTITLE2=40
TTITLE3=41
TTITLE4=42
TTITLE5=43
TTITLE6=44
TTITLE7=45
TTITLE8=46
EXTD=CD 5
EXTT0=
EXTT1=
EXTT2=
EXTT3=
EXTT4=
EXTT5=
EXTT6=
EXTT7=
EXTT8=
PLAYORDER=
